<svg xmlns="http://www.w3.org/2000/svg" xmlns:xlink="http://www.w3.org/1999/xlink" x="0px" y="0px" width="1499px" height="410px" viewBox="0 0 1499 410" xml:space="preserve"><g id="Layer_1">	<g>		<path fill="#CC1414" d="M418.887,280.972V61.104h96.688c51.655,0,78.478,23.178,78.478,67.88c0,36.093-17.22,58.279-50.994,65.563   l57.616,86.424h-37.749l-52.98-83.775h-59.272v83.775H418.887z M514.251,169.051c31.787,0,47.681-13.245,47.681-40.066   c0-26.489-15.894-39.734-47.681-39.734h-63.577v79.801H514.251z"></path>		<path fill="#CC1414" d="M851.66,171.038c0,66.225-47.683,113.245-114.568,113.245c-67.219,0-114.569-47.02-114.569-113.245   c0-66.226,47.351-113.246,114.569-113.246C803.978,57.792,851.66,104.812,851.66,171.038z M654.642,171.038   c0,50,33.773,85.099,82.45,85.099c48.675,0,82.451-35.099,82.451-85.099c0-50-33.776-85.1-82.451-85.1   C688.415,85.938,654.642,121.039,654.642,171.038z"></path>		<path fill="#CC1414" d="M1031.457,76.335v34.106h-1.655c-14.571-15.895-39.073-24.503-69.205-24.503   c-31.126,0-51.325,14.238-51.325,36.424c0,19.205,12.582,27.483,53.974,31.788c58.938,5.96,80.132,25.165,80.132,64.9   c0,40.729-31.457,65.232-84.104,65.232c-35.432,0-64.573-7.947-82.783-22.517v-33.775h1.656   c19.204,18.543,47.018,28.146,80.795,28.146c33.443,0,52.979-13.245,52.979-36.423c0-20.53-13.574-29.802-56.292-34.438   c-57.614-6.292-77.813-23.841-77.813-61.258c0-40.397,32.117-66.225,83.111-66.225C990.729,57.792,1017.22,64.746,1031.457,76.335   z"></path>		<path fill="#CC1414" d="M1080.596,61.104h31.787v219.867h-31.787V61.104z"></path>		<path fill="#CC1414" d="M1311.874,280.972L1188.365,93.223h-0.663v187.749h-30.464V61.104h44.371l117.55,177.152h0.662V61.104   h30.463v219.867H1311.874z"></path>		<path fill="#CC1414" d="M1395.396,61.104h31.787v219.867h-31.787V61.104z"></path>	</g>	<path fill-rule="evenodd" clip-rule="evenodd" d="M98.059,224.708c10.012,1.164,18.153-2.041,25.189-4.365  c17.741-7.602,97.981-42.862,166.192-47.1c54.859-3.408,93.504,13.995,89.256,69.959c-1.021,13.47-5.333,24.662-8.845,37.794  c-117.004-2.82-217.068,11.304-296.72,45.834c5.329-32.515,5.03-69.458,4.825-107.751c-0.203-37.727-8.263-73.748-6.433-106.948  c1.543-28.005,18.601-47.974,42.618-50.66c33.954-3.798,55.502,21.542,54.68,55.484c-0.591,24.422-13.872,46.192-26.536,62.722  C128.992,197.025,112.238,211.465,98.059,224.708z"></path></g><g id="Layer_2">	<g>		<path d="M451.403,315.64v4.615h-0.239c-3.104-3.581-7.002-5.252-12.095-5.252c-9.628,0-15.995,6.525-15.995,15.676   c0,9.072,6.366,15.676,15.995,15.676c5.093,0,8.992-1.671,12.095-5.252h0.239v4.695c-2.944,2.785-7.4,4.218-12.573,4.218   c-12.016,0-19.894-8.117-19.894-19.337c0-11.299,7.878-19.336,19.894-19.336C444.003,311.343,448.459,312.775,451.403,315.64z"></path>		<path d="M497.474,330.679c0,11.379-8.116,19.337-19.575,19.337c-11.379,0-19.496-7.958-19.496-19.337   c0-11.299,8.117-19.336,19.496-19.336C489.357,311.343,497.474,319.38,497.474,330.679z M462.541,330.679   c0,9.231,6.446,15.676,15.358,15.676c8.992,0,15.438-6.445,15.438-15.676c0-9.23-6.445-15.676-15.438-15.676   C468.986,315.003,462.541,321.449,462.541,330.679z"></path>		<path d="M540.36,327.974v21.247h-4.058v-20.849c0-8.355-4.615-13.369-12.493-13.369c-8.355,0-13.528,5.889-13.528,15.358v18.859   h-4.058v-37.082h3.501l0.08,7.639h0.159c2.626-5.332,7.639-8.435,14.563-8.435C534.313,311.343,540.36,317.708,540.36,327.974z"></path>		<path d="M571.313,294.155v3.979h-0.238c-1.433-1.035-3.979-1.75-6.287-1.75c-4.934,0-7.639,2.944-7.639,8.594v7.162h12.971v3.581   h-12.971v33.501h-4.059v-33.501h-7.32v-3.581h7.32v-7.321c0-7.639,4.059-12.095,11.221-12.095   C567.254,292.722,569.801,293.279,571.313,294.155z"></path>		<path d="M610.78,330.679c0,11.379-8.117,19.337-19.575,19.337c-11.38,0-19.496-7.958-19.496-19.337   c0-11.299,8.116-19.336,19.496-19.336C602.663,311.343,610.78,319.38,610.78,330.679z M575.847,330.679   c0,9.231,6.445,15.676,15.358,15.676c8.991,0,15.438-6.445,15.438-15.676c0-9.23-6.446-15.676-15.438-15.676   C582.292,315.003,575.847,321.449,575.847,330.679z"></path>		<path d="M641.254,312.775v4.218h-0.239c-1.75-1.194-3.581-1.751-5.809-1.751c-7.719,0-11.618,5.65-11.618,16.313v17.666h-4.059   v-37.082h3.502l0.079,7.082h0.159c2.229-5.172,6.286-7.878,12.255-7.878C637.991,311.343,639.9,311.979,641.254,312.775z"></path>		<path d="M667.512,348.583c-1.513,0.875-3.74,1.433-6.287,1.433c-6.923,0-10.901-4.377-10.901-11.857v-22.44h-7.321v-3.581h7.4   l0.796-9.868h3.184v9.868h12.971v3.581h-12.971v22.36c0,5.172,2.705,8.276,7.32,8.276c2.069,0,4.138-0.557,5.57-2.069h0.239   V348.583z"></path>		<path d="M682.867,346.913c0,1.75-1.354,3.104-3.104,3.104c-1.751,0-3.104-1.353-3.104-3.104c0-1.83,1.353-3.183,3.104-3.183   C681.514,343.729,682.867,345.083,682.867,346.913z"></path>		<path d="M742.146,315.64v4.615h-0.239c-3.104-3.581-7.003-5.252-12.096-5.252c-9.628,0-15.994,6.525-15.994,15.676   c0,9.072,6.366,15.676,15.994,15.676c5.093,0,8.992-1.671,12.096-5.252h0.239v4.695c-2.944,2.785-7.401,4.218-12.573,4.218   c-12.016,0-19.894-8.117-19.894-19.337c0-11.299,7.878-19.336,19.894-19.336C734.745,311.343,739.202,312.775,742.146,315.64z"></path>		<path d="M784.396,349.22l-0.079-7.639h-0.159c-2.944,5.252-8.594,8.435-15.994,8.435c-11.062,0-19.019-8.037-19.019-19.337   c0-11.299,7.957-19.336,19.019-19.336c7.4,0,13.05,3.183,15.994,8.435h0.159l0.079-7.639h3.581v37.082H784.396z M784.158,330.679   c0-9.23-6.445-15.676-15.517-15.676c-8.913,0-15.358,6.446-15.358,15.676c0,9.231,6.445,15.676,15.358,15.676   C777.713,346.355,784.158,339.91,784.158,330.679z"></path>		<path d="M799.273,293.518h4.059v55.702h-4.059V293.518z"></path>		<path d="M819.563,300.361c0,1.592-1.272,2.944-2.944,2.944c-1.671,0-2.943-1.353-2.943-2.944c0-1.671,1.272-3.024,2.943-3.024   C818.291,297.337,819.563,298.69,819.563,300.361z M814.63,312.139h4.059v37.082h-4.059V312.139z"></path>		<path d="M849.642,348.583c-1.513,0.875-3.74,1.433-6.287,1.433c-6.923,0-10.901-4.377-10.901-11.857v-22.44h-7.321v-3.581h7.4   l0.796-9.868h3.184v9.868h12.971v3.581h-12.971v22.36c0,5.172,2.705,8.276,7.32,8.276c2.069,0,4.138-0.557,5.57-2.069h0.239   V348.583z"></path>		<path d="M890.46,349.22l-0.079-7.639h-0.159c-2.944,5.252-8.594,8.435-15.994,8.435c-11.062,0-19.019-8.037-19.019-19.337   c0-11.299,7.957-19.336,19.019-19.336c7.4,0,13.05,3.183,15.994,8.435h0.159l0.079-7.639h3.581v37.082H890.46z M890.222,330.679   c0-9.23-6.445-15.676-15.517-15.676c-8.913,0-15.358,6.446-15.358,15.676c0,9.231,6.445,15.676,15.358,15.676   C883.776,346.355,890.222,339.91,890.222,330.679z"></path>		<path d="M925.072,348.583c-1.513,0.875-3.74,1.433-6.287,1.433c-6.923,0-10.901-4.377-10.901-11.857v-22.44h-7.321v-3.581h7.4   l0.796-9.868h3.184v9.868h12.971v3.581h-12.971v22.36c0,5.172,2.705,8.276,7.32,8.276c2.069,0,4.138-0.557,5.57-2.069h0.239   V348.583z"></path>		<path d="M934.778,331.714c0.478,8.992,7.003,14.642,17.108,14.642c5.729,0,10.425-1.83,14.244-5.491h0.238v4.297   c-3.421,3.103-8.673,4.854-14.482,4.854c-12.971,0-21.246-7.56-21.246-19.337c0-11.299,8.037-19.336,19.337-19.336   c11.458,0,18.858,7.082,18.858,17.904v2.467H934.778z M934.778,328.212h30.318c-0.478-7.958-6.366-13.209-15.04-13.209   C941.781,315.003,935.813,320.414,934.778,328.212z"></path>		<path d="M983.715,346.913c0,1.75-1.354,3.104-3.104,3.104c-1.751,0-3.104-1.353-3.104-3.104c0-1.83,1.353-3.183,3.104-3.183   C982.361,343.729,983.715,345.083,983.715,346.913z"></path>		<path d="M1045.778,349.22l-0.079-7.639h-0.159c-2.944,5.252-8.594,8.435-15.994,8.435c-11.062,0-19.019-8.037-19.019-19.337   c0-11.299,7.957-19.336,19.019-19.336c7.161,0,12.652,3.024,15.597,7.878h0.159v-25.703h4.058v55.702H1045.778z M1045.54,330.679   c0-9.23-6.445-15.676-15.517-15.676c-8.913,0-15.358,6.446-15.358,15.676c0,9.231,6.445,15.676,15.358,15.676   C1039.095,346.355,1045.54,339.91,1045.54,330.679z"></path>		<path d="M1090.178,349.22l-0.079-7.48h-0.159c-2.626,5.332-7.64,8.276-14.483,8.276c-9.787,0-15.755-6.287-15.755-16.631v-21.246   h4.058v20.848c0,8.355,4.695,13.369,12.414,13.369c8.275,0,13.527-5.889,13.527-15.278v-18.938h4.059v37.082H1090.178z"></path>		<path d="M1126.78,312.775v4.218h-0.239c-1.75-1.194-3.581-1.751-5.809-1.751c-7.719,0-11.618,5.65-11.618,16.313v17.666h-4.059   v-37.082h3.502l0.079,7.082h0.159c2.229-5.172,6.286-7.878,12.255-7.878C1123.518,311.343,1125.427,311.979,1126.78,312.775z"></path>		<path d="M1164.895,349.22l-0.079-7.639h-0.159c-2.944,5.252-8.594,8.435-15.994,8.435c-11.062,0-19.019-8.037-19.019-19.337   c0-11.299,7.957-19.336,19.019-19.336c7.4,0,13.05,3.183,15.994,8.435h0.159l0.079-7.639h3.581v37.082H1164.895z    M1164.656,330.679c0-9.23-6.445-15.676-15.517-15.676c-8.913,0-15.358,6.446-15.358,15.676c0,9.231,6.445,15.676,15.358,15.676   C1158.211,346.355,1164.656,339.91,1164.656,330.679z"></path>		<path d="M1218.524,330.679c0,11.3-7.957,19.337-18.938,19.337c-7.48,0-13.13-3.183-16.074-8.435h-0.159l-0.079,7.639h-3.502   v-55.702h4.059v25.543h0.159c2.944-4.774,8.435-7.719,15.597-7.719C1210.567,311.343,1218.524,319.38,1218.524,330.679z    M1214.387,330.679c0-9.23-6.366-15.676-15.357-15.676c-8.992,0-15.438,6.446-15.438,15.676c0,9.231,6.445,15.676,15.438,15.676   C1208.021,346.355,1214.387,339.91,1214.387,330.679z"></path>		<path d="M1232.207,300.361c0,1.592-1.272,2.944-2.943,2.944c-1.672,0-2.944-1.353-2.944-2.944c0-1.671,1.272-3.024,2.944-3.024   C1230.935,297.337,1232.207,298.69,1232.207,300.361z M1227.273,312.139h4.059v37.082h-4.059V312.139z"></path>		<path d="M1242.55,293.518h4.059v55.702h-4.059V293.518z"></path>		<path d="M1262.84,300.361c0,1.592-1.272,2.944-2.943,2.944c-1.672,0-2.944-1.353-2.944-2.944c0-1.671,1.272-3.024,2.944-3.024   C1261.567,297.337,1262.84,298.69,1262.84,300.361z M1257.906,312.139h4.059v37.082h-4.059V312.139z"></path>		<path d="M1292.918,348.583c-1.513,0.875-3.74,1.433-6.287,1.433c-6.923,0-10.901-4.377-10.901-11.857v-22.44h-7.321v-3.581h7.4   l0.796-9.868h3.184v9.868h12.971v3.581h-12.971v22.36c0,5.172,2.705,8.276,7.32,8.276c2.069,0,4.138-0.557,5.57-2.069h0.239   V348.583z"></path>		<path d="M1333.737,349.22l-0.079-7.639h-0.159c-2.944,5.252-8.594,8.435-15.994,8.435c-11.062,0-19.019-8.037-19.019-19.337   c0-11.299,7.957-19.336,19.019-19.336c7.4,0,13.05,3.183,15.994,8.435h0.159l0.079-7.639h3.581v37.082H1333.737z    M1333.499,330.679c0-9.23-6.445-15.676-15.517-15.676c-8.913,0-15.358,6.446-15.358,15.676c0,9.231,6.445,15.676,15.358,15.676   C1327.054,346.355,1333.499,339.91,1333.499,330.679z"></path>		<path d="M1368.35,348.583c-1.513,0.875-3.74,1.433-6.287,1.433c-6.923,0-10.901-4.377-10.901-11.857v-22.44h-7.321v-3.581h7.4   l0.796-9.868h3.184v9.868h12.971v3.581h-12.971v22.36c0,5.172,2.705,8.276,7.32,8.276c2.069,0,4.138-0.557,5.57-2.069h0.239   V348.583z"></path>		<path d="M1378.055,331.714c0.478,8.992,7.003,14.642,17.108,14.642c5.729,0,10.425-1.83,14.244-5.491h0.238v4.297   c-3.421,3.103-8.673,4.854-14.482,4.854c-12.971,0-21.246-7.56-21.246-19.337c0-11.299,8.037-19.336,19.337-19.336   c11.458,0,18.858,7.082,18.858,17.904v2.467H1378.055z M1378.055,328.212h30.318c-0.478-7.958-6.366-13.209-15.04-13.209   C1385.058,315.003,1379.089,320.414,1378.055,328.212z"></path>		<path d="M1426.992,346.913c0,1.75-1.354,3.104-3.104,3.104c-1.751,0-3.104-1.353-3.104-3.104c0-1.83,1.353-3.183,3.104-3.183   C1425.639,343.729,1426.992,345.083,1426.992,346.913z"></path>	</g></g></svg>