<svg xmlns="http://www.w3.org/2000/svg" viewBox="0 0 620 145" role="img" aria-labelledby="title desc">
  <title id="title">ROSINI</title>
  <desc id="desc">Rosini comfort. calitate. durabilitate.</desc>
  <rect width="620" height="145" fill="#fff"/>
  <path fill="#000" d="M18 18c4-11 18-15 29-8 13 8 20 23 18 40-2 16-11 28-24 39 25-15 54-27 83-28 31-2 59 6 80 21 7 5 11 14 8 22-3 8-11 13-20 13-58-1-112 5-168 27-10 4-20-3-19-14l4-91c1-9 3-16 9-21z"/>
  <text x="190" y="78" font-family="Arial, Helvetica, sans-serif" font-size="62" font-weight="400" letter-spacing="0" fill="#d30d14">ROSINI</text>
  <text x="192" y="112" font-family="Arial, Helvetica, sans-serif" font-size="22" fill="#111">confort. calitate. durabilitate.</text>
</svg>